<svg xmlns="http://www.w3.org/2000/svg" xmlns:xlink="http://www.w3.org/1999/xlink" width="500" zoomAndPan="magnify" viewBox="0 0 375 374.999991" height="500" preserveAspectRatio="xMidYMid meet" version="1.0"><defs><g/></defs><g fill="#004aad" fill-opacity="1"><g transform="translate(66.663377, 201.374987)"><g><path d="M 18.640625 -43.015625 C 20.921875 -43.015625 23.15625 -42.679688 25.34375 -42.015625 C 27.53125 -41.347656 29.148438 -40.691406 30.203125 -40.046875 L 31.75 -39.015625 L 27.859375 -31.34375 C 27.546875 -31.539062 27.113281 -31.800781 26.5625 -32.125 C 26.019531 -32.445312 25 -32.878906 23.5 -33.421875 C 22 -33.972656 20.597656 -34.25 19.296875 -34.25 C 17.691406 -34.25 16.453125 -33.90625 15.578125 -33.21875 C 14.710938 -32.539062 14.28125 -31.625 14.28125 -30.46875 C 14.28125 -29.882812 14.484375 -29.34375 14.890625 -28.84375 C 15.304688 -28.351562 16.007812 -27.828125 17 -27.265625 C 17.988281 -26.703125 18.859375 -26.25 19.609375 -25.90625 C 20.359375 -25.5625 21.519531 -25.050781 23.09375 -24.375 C 25.820312 -23.207031 28.148438 -21.625 30.078125 -19.625 C 32.003906 -17.632812 32.96875 -15.378906 32.96875 -12.859375 C 32.96875 -10.429688 32.53125 -8.3125 31.65625 -6.5 C 30.789062 -4.6875 29.597656 -3.269531 28.078125 -2.25 C 26.566406 -1.226562 24.890625 -0.472656 23.046875 0.015625 C 21.203125 0.515625 19.203125 0.765625 17.046875 0.765625 C 15.203125 0.765625 13.390625 0.578125 11.609375 0.203125 C 9.835938 -0.171875 8.351562 -0.640625 7.15625 -1.203125 C 5.96875 -1.765625 4.894531 -2.316406 3.9375 -2.859375 C 2.988281 -3.410156 2.289062 -3.875 1.84375 -4.25 L 1.171875 -4.8125 L 5.984375 -12.90625 C 6.398438 -12.5625 6.960938 -12.125 7.671875 -11.59375 C 8.390625 -11.0625 9.660156 -10.351562 11.484375 -9.46875 C 13.316406 -8.582031 14.929688 -8.140625 16.328125 -8.140625 C 20.390625 -8.140625 22.421875 -9.519531 22.421875 -12.28125 C 22.421875 -12.863281 22.273438 -13.398438 21.984375 -13.890625 C 21.703125 -14.390625 21.191406 -14.882812 20.453125 -15.375 C 19.722656 -15.875 19.078125 -16.269531 18.515625 -16.5625 C 17.953125 -16.851562 17.03125 -17.296875 15.75 -17.890625 C 14.46875 -18.492188 13.519531 -18.945312 12.90625 -19.25 C 10.34375 -20.507812 8.359375 -22.085938 6.953125 -23.984375 C 5.554688 -25.878906 4.859375 -27.921875 4.859375 -30.109375 C 4.859375 -33.898438 6.257812 -37 9.0625 -39.40625 C 11.863281 -41.8125 15.054688 -43.015625 18.640625 -43.015625 Z M 18.640625 -43.015625 "/></g></g></g><g fill="#004aad" fill-opacity="1"><g transform="translate(96.255147, 201.374987)"><g><path d="M 4.609375 -26.265625 L 4.609375 -36.046875 L 13.671875 -36.046875 L 13.671875 -26.265625 L 19.203125 -26.265625 L 19.203125 -19.359375 L 13.671875 -19.359375 L 13.671875 -11.015625 C 13.671875 -8.585938 14.351562 -7.375 15.71875 -7.375 C 16.0625 -7.375 16.421875 -7.441406 16.796875 -7.578125 C 17.171875 -7.710938 17.460938 -7.847656 17.671875 -7.984375 L 17.96875 -8.1875 L 20.21875 -0.875 C 18.28125 0.21875 16.0625 0.765625 13.5625 0.765625 C 11.863281 0.765625 10.398438 0.46875 9.171875 -0.125 C 7.941406 -0.726562 7.007812 -1.53125 6.375 -2.53125 C 5.738281 -3.539062 5.285156 -4.597656 5.015625 -5.703125 C 4.742188 -6.816406 4.609375 -8.003906 4.609375 -9.265625 L 4.609375 -19.359375 L 0.8125 -19.359375 L 0.8125 -26.265625 Z M 4.609375 -26.265625 "/></g></g></g><g fill="#004aad" fill-opacity="1"><g transform="translate(111.664712, 201.374987)"><g><path d="M 3.078125 0 L 3.078125 -26.265625 L 12.140625 -26.265625 L 12.140625 -22.484375 L 12.234375 -22.484375 C 12.304688 -22.617188 12.414062 -22.785156 12.5625 -22.984375 C 12.71875 -23.191406 13.050781 -23.550781 13.5625 -24.0625 C 14.082031 -24.570312 14.628906 -25.03125 15.203125 -25.4375 C 15.785156 -25.851562 16.535156 -26.222656 17.453125 -26.546875 C 18.378906 -26.867188 19.320312 -27.03125 20.28125 -27.03125 C 21.269531 -27.03125 22.238281 -26.894531 23.1875 -26.625 C 24.144531 -26.351562 24.847656 -26.082031 25.296875 -25.8125 L 26.015625 -25.390625 L 22.21875 -17.71875 C 21.09375 -18.675781 19.523438 -19.15625 17.515625 -19.15625 C 16.421875 -19.15625 15.476562 -18.914062 14.6875 -18.4375 C 13.90625 -17.957031 13.351562 -17.375 13.03125 -16.6875 C 12.707031 -16.007812 12.476562 -15.429688 12.34375 -14.953125 C 12.207031 -14.472656 12.140625 -14.097656 12.140625 -13.828125 L 12.140625 0 Z M 3.078125 0 "/></g></g></g><g fill="#004aad" fill-opacity="1"><g transform="translate(132.347807, 201.374987)"><g><path d="M 4.859375 -3.25 C 2.398438 -5.925781 1.171875 -9.207031 1.171875 -13.09375 C 1.171875 -16.988281 2.398438 -20.285156 4.859375 -22.984375 C 7.316406 -25.679688 10.441406 -27.03125 14.234375 -27.03125 C 17.710938 -27.03125 20.582031 -25.941406 22.84375 -23.765625 L 22.84375 -26.265625 L 31.90625 -26.265625 L 31.90625 0 L 22.9375 0 L 22.9375 -2.96875 L 22.84375 -2.96875 C 20.582031 -0.476562 17.710938 0.765625 14.234375 0.765625 C 10.441406 0.765625 7.316406 -0.570312 4.859375 -3.25 Z M 12.5625 -17.5625 C 11.382812 -16.40625 10.796875 -14.921875 10.796875 -13.109375 C 10.796875 -11.296875 11.359375 -9.816406 12.484375 -8.671875 C 13.617188 -7.535156 15.109375 -6.96875 16.953125 -6.96875 C 18.722656 -6.96875 20.179688 -7.546875 21.328125 -8.703125 C 22.472656 -9.867188 23.046875 -11.335938 23.046875 -13.109375 C 23.046875 -14.921875 22.457031 -16.40625 21.28125 -17.5625 C 20.101562 -18.71875 18.660156 -19.296875 16.953125 -19.296875 C 15.210938 -19.296875 13.75 -18.71875 12.5625 -17.5625 Z M 12.5625 -17.5625 "/></g></g></g><g fill="#004aad" fill-opacity="1"><g transform="translate(162.502764, 201.374987)"><g><path d="M 4.609375 -26.265625 L 4.609375 -36.046875 L 13.671875 -36.046875 L 13.671875 -26.265625 L 19.203125 -26.265625 L 19.203125 -19.359375 L 13.671875 -19.359375 L 13.671875 -11.015625 C 13.671875 -8.585938 14.351562 -7.375 15.71875 -7.375 C 16.0625 -7.375 16.421875 -7.441406 16.796875 -7.578125 C 17.171875 -7.710938 17.460938 -7.847656 17.671875 -7.984375 L 17.96875 -8.1875 L 20.21875 -0.875 C 18.28125 0.21875 16.0625 0.765625 13.5625 0.765625 C 11.863281 0.765625 10.398438 0.46875 9.171875 -0.125 C 7.941406 -0.726562 7.007812 -1.53125 6.375 -2.53125 C 5.738281 -3.539062 5.285156 -4.597656 5.015625 -5.703125 C 4.742188 -6.816406 4.609375 -8.003906 4.609375 -9.265625 L 4.609375 -19.359375 L 0.8125 -19.359375 L 0.8125 -26.265625 Z M 4.609375 -26.265625 "/></g></g></g><g fill="#004aad" fill-opacity="1"><g transform="translate(177.912324, 201.374987)"><g><path d="M 3.078125 0 L 3.078125 -44.03125 L 12.140625 -44.03125 L 12.140625 -23.5 L 12.234375 -23.5 C 14.585938 -25.851562 17.097656 -27.03125 19.765625 -27.03125 C 21.054688 -27.03125 22.34375 -26.859375 23.625 -26.515625 C 24.90625 -26.179688 26.132812 -25.65625 27.3125 -24.9375 C 28.488281 -24.21875 29.441406 -23.203125 30.171875 -21.890625 C 30.910156 -20.578125 31.28125 -19.050781 31.28125 -17.3125 L 31.28125 0 L 22.21875 0 L 22.21875 -14.84375 C 22.21875 -16.207031 21.78125 -17.398438 20.90625 -18.421875 C 20.039062 -19.453125 18.910156 -19.96875 17.515625 -19.96875 C 16.148438 -19.96875 14.910156 -19.4375 13.796875 -18.375 C 12.691406 -17.320312 12.140625 -16.144531 12.140625 -14.84375 L 12.140625 0 Z M 3.078125 0 "/></g></g></g><g fill="#004aad" fill-opacity="1"><g transform="translate(206.940902, 201.374987)"><g><path d="M 3.078125 0 L 3.078125 -26.265625 L 12.140625 -26.265625 L 12.140625 -23.5 L 12.234375 -23.5 C 14.585938 -25.851562 17.097656 -27.03125 19.765625 -27.03125 C 21.671875 -27.03125 23.460938 -26.640625 25.140625 -25.859375 C 26.816406 -25.078125 28.082031 -23.863281 28.9375 -22.21875 C 31.59375 -25.425781 34.492188 -27.03125 37.640625 -27.03125 C 40.429688 -27.03125 42.832031 -26.242188 44.84375 -24.671875 C 46.863281 -23.109375 47.875 -20.65625 47.875 -17.3125 L 47.875 0 L 38.8125 0 L 38.8125 -14.84375 C 38.8125 -16.25 38.425781 -17.421875 37.65625 -18.359375 C 36.882812 -19.296875 35.734375 -19.765625 34.203125 -19.765625 C 32.867188 -19.765625 31.851562 -19.363281 31.15625 -18.5625 C 30.457031 -17.757812 30.070312 -16.796875 30 -15.671875 L 30 0 L 20.9375 0 L 20.9375 -14.84375 C 20.9375 -16.25 20.550781 -17.421875 19.78125 -18.359375 C 19.019531 -19.296875 17.867188 -19.765625 16.328125 -19.765625 C 14.929688 -19.765625 13.882812 -19.328125 13.1875 -18.453125 C 12.488281 -17.585938 12.140625 -16.554688 12.140625 -15.359375 L 12.140625 0 Z M 3.078125 0 "/></g></g></g><g fill="#004aad" fill-opacity="1"><g transform="translate(252.558033, 201.374987)"><g><path d="M 4.859375 -3.25 C 2.398438 -5.925781 1.171875 -9.207031 1.171875 -13.09375 C 1.171875 -16.988281 2.398438 -20.285156 4.859375 -22.984375 C 7.316406 -25.679688 10.441406 -27.03125 14.234375 -27.03125 C 17.710938 -27.03125 20.582031 -25.941406 22.84375 -23.765625 L 22.84375 -26.265625 L 31.90625 -26.265625 L 31.90625 0 L 22.9375 0 L 22.9375 -2.96875 L 22.84375 -2.96875 C 20.582031 -0.476562 17.710938 0.765625 14.234375 0.765625 C 10.441406 0.765625 7.316406 -0.570312 4.859375 -3.25 Z M 12.5625 -17.5625 C 11.382812 -16.40625 10.796875 -14.921875 10.796875 -13.109375 C 10.796875 -11.296875 11.359375 -9.816406 12.484375 -8.671875 C 13.617188 -7.535156 15.109375 -6.96875 16.953125 -6.96875 C 18.722656 -6.96875 20.179688 -7.546875 21.328125 -8.703125 C 22.472656 -9.867188 23.046875 -11.335938 23.046875 -13.109375 C 23.046875 -14.921875 22.457031 -16.40625 21.28125 -17.5625 C 20.101562 -18.71875 18.660156 -19.296875 16.953125 -19.296875 C 15.210938 -19.296875 13.75 -18.71875 12.5625 -17.5625 Z M 12.5625 -17.5625 "/></g></g></g><g fill="#004aad" fill-opacity="1"><g transform="translate(282.712984, 201.374987)"><g><path d="M 3.078125 0 L 3.078125 -44.03125 L 12.140625 -44.03125 L 12.140625 0 Z M 3.078125 0 "/></g></g></g><g fill="#004aad" fill-opacity="1"><g transform="translate(293.10502, 201.374987)"><g><path d="M 3.078125 0 L 3.078125 -44.03125 L 12.140625 -44.03125 L 12.140625 0 Z M 3.078125 0 "/></g></g></g></svg>